<svg width="233" height="75" viewBox="0 0 233 75" fill="none" xmlns="http://www.w3.org/2000/svg">
<path d="M0.000184101 0.498901L14.7394 5.68403V57.566L35.5002 45.5813L25.3216 40.8055L18.9001 24.8226L51.6113 36.3146V53.0223L14.7476 74.2845L0 66.0811L0.000184101 0.498901Z" fill="white"/>
<path d="M232.735 70.5353H222.678L202.914 49.0226H202.739V70.5353H195.568V4.24814H202.739V46.2679H202.914L221.716 25.7609H231.117L210.347 47.361L232.735 70.5353Z" fill="white"/>
<path d="M187.422 70.5353H180.251V44.9999C180.251 35.497 176.782 30.7455 169.845 30.7455C166.259 30.7455 163.286 32.101 160.925 34.8119C158.593 37.4937 157.427 40.8897 157.427 44.9999V70.5353H150.256V25.7609H157.427V33.1941H157.602C160.983 27.539 165.88 24.7115 172.293 24.7115C177.19 24.7115 180.936 26.3001 183.531 29.4775C186.125 32.6257 187.422 37.1877 187.422 43.1634V70.5353Z" fill="white"/>
<path d="M137.65 14.3923C136.368 14.3923 135.275 13.9551 134.371 13.0806C133.467 12.2061 133.016 11.0984 133.016 9.7575C133.016 8.41659 133.467 7.3089 134.371 6.43439C135.275 5.53074 136.368 5.07892 137.65 5.07892C138.962 5.07892 140.07 5.53074 140.974 6.43439C141.906 7.3089 142.373 8.41659 142.373 9.7575C142.373 11.0401 141.906 12.1332 140.974 13.0369C140.07 13.9405 138.962 14.3923 137.65 14.3923ZM141.148 70.5353H133.978V25.7609H141.148V70.5353Z" fill="white"/>
<path d="M124.87 70.5353H117.699V4.24814H124.87V70.5353Z" fill="white"/>
<path d="M72.7363 70.5353V7.83362H90.5761C95.998 7.83362 100.298 9.15994 103.475 11.8126C106.652 14.4652 108.241 17.9195 108.241 22.1754C108.241 25.7317 107.279 28.8216 105.355 31.4451C103.431 34.0686 100.779 35.9342 97.3972 37.0419V37.2168C101.624 37.7124 105.005 39.3156 107.541 42.0266C110.078 44.7084 111.346 48.2064 111.346 52.5206C111.346 57.8842 109.422 62.2276 105.574 65.5507C101.726 68.8738 96.8725 70.5353 91.0134 70.5353H72.7363ZM80.0821 14.4798V34.7245H87.6028C91.6255 34.7245 94.7883 33.7626 97.0912 31.8387C99.394 29.8856 100.545 27.1455 100.545 23.6184C100.545 17.526 96.5373 14.4798 88.5211 14.4798H80.0821ZM80.0821 41.327V63.8891H90.0514C94.3656 63.8891 97.7033 62.8689 100.064 60.8284C102.455 58.7879 103.65 55.9895 103.65 52.4332C103.65 45.029 98.607 41.327 88.5211 41.327H80.0821Z" fill="white"/>
</svg>
